PathFileType	4	(X/Y/Z)	 s04c0203.trc
DataRate	CameraRate	NumFrames	NumMarkers	Units	OrigDataRate	OrigDataStartFrame	OrigNumFrames
200	200	6	50	mm	200	251	2000
Frame#	Time	racr			lacr			c7			jug			rlel			rdr			llel			ldr			s2			lic			ric			lasi			rasi			rpsi			lpsi			rgt			lgt			rth1			rth2			rth3			rth4			rlfc			rmfc			rsh1			rsh2			rsh3			rsh4			rlmal			rmmal			rcal			rtoe			rmt5			lth1			lth2			lth4			lth3			llfc			lmfc			lsh1			lsh2			lsh3			lsh4			llmal			lmmal			lcal			ltoe			lmt5			SBIKE			LBIKE			RBIKE			
		X1	Y1	Z1	X2	Y2	Z2	X3	Y3	Z3	X4	Y4	Z4	X5	Y5	Z5	X6	Y6	Z6	X7	Y7	Z7	X8	Y8	Z8	X9	Y9	Z9	X10	Y10	Z10	X11	Y11	Z11	X12	Y12	Z12	X13	Y13	Z13	X14	Y14	Z14	X15	Y15	Z15	X16	Y16	Z16	X17	Y17	Z17	X18	Y18	Z18	X19	Y19	Z19	X20	Y20	Z20	X21	Y21	Z21	X22	Y22	Z22	X23	Y23	Z23	X24	Y24	Z24	X25	Y25	Z25	X26	Y26	Z26	X27	Y27	Z27	X28	Y28	Z28	X29	Y29	Z29	X30	Y30	Z30	X31	Y31	Z31	X32	Y32	Z32	X33	Y33	Z33	X34	Y34	Z34	X35	Y35	Z35	X36	Y36	Z36	X37	Y37	Z37	X38	Y38	Z38	X39	Y39	Z39	X40	Y40	Z40	X41	Y41	Z41	X42	Y42	Z42	X43	Y43	Z43	X44	Y44	Z44	X45	Y45	Z45	X46	Y46	Z46	X47	Y47	Z47	X48	Y48	Z48	X49	Y49	Z49	X50	Y50	Z50	
251	1.2550	476.727991	1437.484461	-139.723467	504.569203	1410.982789	-414.539009	469.144629	1471.342452	-276.359152	473.612646	1319.792913	-270.055698	478.319883	1138.219951	-2.560736	692.160014	940.803830	-71.212241	478.800784	1130.475857	-534.207806	703.893761	945.931689	-470.165330	-79.736053	1182.311608	-285.587795	85.356136	1184.458966	-432.251437	79.145561	1183.622568	-119.500132	123.533893	1136.846827	-387.620405	117.429810	1128.503779	-163.347043	-47.122912	1222.607847	-240.299691	-48.869865	1229.887820	-316.122427	22.824021	1126.613967	-98.106581	47.540199	1103.502464	-466.871061	129.315577	1008.103764	-77.177436	202.312589	958.144370	-79.801816	242.817492	883.116071	-75.319631	227.693620	980.762019	-96.440513	314.931266	757.174287	-95.279779	300.305789	743.770071	-208.703629	219.236205	678.361527	-79.135635	167.688853	604.497246	-98.260931	87.890122	573.528226	-109.304687	191.323623	584.291118	-121.093900	-16.428729	463.538316	-128.558916	8.298761	465.838444	-212.869258	-94.152985	457.669650	-173.157964	183.185012	345.069925	-150.223023	109.672879	342.669648	-98.306024	107.740426	1034.679212	-469.399052	187.505382	1000.668405	-467.958773	209.033032	1028.540769	-457.728719	240.821618	929.111412	-464.629090	351.032164	811.618593	-437.756848	382.827607	792.134454	-327.361405	345.483383	688.846474	-460.008299	353.601071	603.056698	-443.544952	318.381689	521.660905	-443.930774	381.521159	601.492253	-415.755323	292.079209	376.330253	-438.740663	288.553391	386.409062	-351.044587	212.022375	347.919074	-400.338280	514.444234	344.083148	-397.844014	446.486681	306.093713	-461.806621	-177.538670	933.109511	-279.723722	-3.260117	85.527414	-484.605709	-15.001528	80.399270	-84.144723	
252	1.2600	476.338644	1437.544552	-139.465246	504.021166	1411.320336	-414.285118	468.630132	1471.775386	-276.074748	474.095517	1320.060322	-269.636205	478.200789	1138.272464	-2.345975	692.167949	940.931227	-70.815505	478.865505	1130.742201	-534.044587	703.776653	945.876362	-469.704248	-79.637017	1181.615310	-286.235218	85.382732	1184.101333	-432.388785	78.658596	1183.612859	-119.659367	123.687769	1136.579496	-387.776606	117.752331	1128.895830	-162.863263	-47.356134	1222.051318	-240.845962	-48.907867	1229.226113	-316.659876	22.472269	1126.436045	-98.436608	47.666737	1102.983334	-467.119863	129.196420	1008.009852	-77.447308	202.296608	958.162970	-79.978367	242.912215	883.217014	-75.496174	227.660223	980.904735	-96.440077	315.377096	757.492119	-95.487662	300.727918	743.932746	-208.860108	219.423304	678.969204	-79.307406	167.613819	605.160180	-98.427062	87.719950	574.628954	-109.438972	191.177688	584.983894	-121.176575	-17.051162	465.027009	-128.820128	7.705995	467.412896	-213.091148	-94.816525	458.842050	-173.158801	183.089564	348.232126	-150.309194	109.713245	345.274079	-98.232163	107.880777	1034.289279	-469.763543	187.640505	1000.179457	-468.227836	209.181266	1027.890171	-457.735427	240.899898	928.639693	-464.873519	350.870107	810.851249	-438.042905	382.802162	791.226237	-327.728734	345.270982	688.034860	-460.303393	353.562233	602.145888	-443.790741	318.444338	520.661411	-444.069008	381.467912	600.635646	-416.027741	292.696192	375.430126	-438.710668	289.205928	385.335614	-351.045817	212.355804	347.595631	-400.259611	514.835013	341.019211	-397.833103	446.472290	303.705142	-461.804811	-177.574872	933.091423	-279.743513	-3.254297	85.511243	-484.605205	-14.999767	80.404015	-84.120637	
253	1.2650	476.018076	1437.584540	-139.201044	503.518160	1411.715125	-414.033503	468.116468	1471.963295	-275.876451	472.799880	1320.273469	-269.853247	477.952071	1138.313054	-2.075316	692.123786	941.068104	-70.400569	478.915878	1130.985171	-533.837090	703.620561	945.818558	-469.142559	-79.575570	1180.996255	-286.669939	85.440143	1183.757040	-432.530036	78.221308	1183.607643	-119.771138	123.791381	1136.212299	-387.854286	116.949876	1128.615253	-163.525189	-47.557815	1221.605367	-241.282036	-48.973990	1228.697585	-317.120515	22.150120	1126.209600	-98.689450	47.783728	1102.492188	-467.320723	129.071745	1007.831633	-77.654191	202.253183	958.095832	-80.068958	242.972917	883.201228	-75.707378	227.658807	980.906031	-96.401363	315.820135	757.690750	-95.677101	301.102469	744.157029	-209.072901	219.652764	679.526385	-79.553472	167.591572	605.956952	-98.613459	87.616515	575.611593	-109.614043	191.073363	585.696375	-121.462356	-17.560550	466.631358	-129.217973	7.166734	468.971328	-213.324993	-95.382243	459.997866	-173.379055	183.026986	350.844722	-150.378500	109.694068	347.552986	-98.287730	108.041411	1033.901535	-470.104129	187.833974	999.837796	-468.599343	209.369511	1027.493885	-458.131339	241.039737	928.248480	-465.181035	350.846554	810.087445	-438.391171	382.897067	790.589087	-328.114869	345.191862	687.233206	-460.586138	353.573290	601.377192	-444.041245	318.556415	519.911477	-444.317946	381.563432	599.907266	-416.328633	293.359048	374.469276	-438.725987	289.729013	384.501156	-351.072685	212.679438	347.349785	-400.205094	515.174989	338.532394	-397.948388	446.475443	301.527556	-461.781584	-177.616731	933.090561	-279.799421	-3.272109	85.514661	-484.611702	-15.013815	80.407250	-84.123635	
254	1.2700	475.752029	1437.603460	-138.938702	503.054047	1412.023167	-413.811007	467.568888	1472.240452	-275.718598	472.457869	1320.471009	-269.737691	477.671622	1138.361871	-1.792117	692.021269	941.157481	-70.049163	478.939463	1131.210531	-533.596575	703.413719	945.788525	-468.464456	-79.673433	1180.490861	-286.831207	85.556382	1183.360716	-432.740359	77.796530	1183.622974	-119.813745	123.884686	1135.878177	-387.909277	116.743279	1128.652071	-163.524977	-47.831559	1221.233024	-241.723008	-48.938882	1228.054982	-317.689757	21.800043	1125.939153	-98.957506	47.923385	1101.996733	-467.552234	128.968041	1007.602352	-77.807293	202.213166	957.971647	-79.950043	243.074613	883.113659	-75.941056	227.663790	980.872131	-96.333253	316.296906	757.867427	-95.899042	301.536064	744.374528	-209.228042	219.947744	680.038994	-79.830776	167.639520	606.663217	-98.895161	87.545220	576.612896	-109.892389	191.082508	586.299856	-121.750926	-18.038377	468.047732	-129.455189	6.850038	470.342399	-213.576476	-95.760120	460.989295	-173.612519	182.965456	352.871225	-150.402806	109.657607	349.278716	-98.336107	108.263706	1033.573034	-470.457434	188.042527	999.491566	-468.994648	209.598004	1027.324545	-458.800401	241.263765	927.894468	-465.583517	350.853124	809.542971	-438.887575	383.063410	789.797619	-328.674968	345.215437	686.503592	-460.981401	353.682893	600.740614	-444.334274	318.798221	519.114313	-444.499564	381.685801	599.284467	-416.681303	294.046130	373.583808	-438.664399	290.163630	383.661706	-351.115399	212.939689	347.037477	-400.169993	515.456847	336.705777	-398.134811	446.485588	299.930876	-461.771754	-177.621587	933.089926	-279.819732	-3.263393	85.514430	-484.606840	-15.020779	80.401328	-84.121291	
255	1.2750	475.475718	1437.765382	-138.654499	502.579370	1412.272445	-413.583075	467.066069	1472.521503	-275.552259	473.049837	1320.604459	-269.371974	477.385075	1138.378233	-1.526786	691.856304	941.237772	-69.769051	478.905858	1131.408150	-533.259774	703.183879	945.737340	-467.680307	-79.105082	1179.446058	-287.284293	85.632921	1182.896716	-432.855899	77.355900	1183.619786	-119.881362	124.059287	1135.587766	-387.971393	116.530815	1128.680477	-163.503341	-48.110649	1220.809236	-242.119077	-49.130033	1227.608828	-317.960518	21.493338	1125.541209	-99.146075	48.133659	1101.410758	-467.785023	128.926392	1007.296197	-77.894832	202.208866	957.863501	-79.964558	242.947046	882.753924	-76.735774	227.684957	980.819155	-96.243691	316.765250	757.991777	-96.115202	302.003568	744.635659	-209.395896	220.346486	680.523673	-80.158400	167.879982	607.207024	-99.242980	87.725546	577.415782	-110.147642	191.207442	586.822791	-122.032508	-18.131804	469.093722	-129.748464	6.861619	471.168965	-213.833063	-95.751960	461.858576	-173.876226	182.996702	353.863954	-150.482844	109.615866	350.766314	-97.979439	108.484525	1033.224730	-470.791429	188.275469	999.126255	-469.427133	209.849570	1026.672579	-458.879089	241.519613	927.497367	-466.022619	350.957736	809.000289	-439.437310	383.375281	789.298446	-329.137120	345.319075	685.876568	-461.398753	353.897151	600.036295	-444.650487	319.030877	518.477103	-444.762041	381.857701	598.709967	-416.991042	294.485712	372.836623	-438.685185	290.304067	383.180802	-351.171554	213.056744	346.721030	-400.182995	515.607016	335.652949	-398.292874	446.452868	298.978448	-461.803338	-177.636188	933.078132	-279.875523	-3.271566	85.519560	-484.628222	-15.022266	80.388127	-84.137333	
256	1.2800	475.990398	1437.877864	-137.971505	502.201762	1412.598895	-413.321254	466.509705	1472.522098	-275.330604	472.711804	1320.720297	-269.208783	477.146927	1138.368835	-1.292679	691.658089	941.273431	-69.479442	478.882393	1131.547310	-532.872324	702.882414	945.659211	-466.847789	-79.129046	1179.098598	-287.845505	85.716005	1182.514254	-432.984703	76.919675	1183.591113	-119.938463	124.213865	1135.341055	-388.051035	116.325571	1128.690781	-163.474409	-50.140611	1221.405793	-240.822470	-49.247303	1227.005643	-318.266946	21.290886	1125.181700	-99.308202	48.355114	1100.898440	-467.992272	128.921328	1007.012663	-77.897774	202.224368	957.768222	-79.999276	243.034546	882.645756	-77.022751	227.737801	980.738928	-96.197051	317.200598	758.209495	-96.286543	302.536682	744.882822	-209.618057	220.869419	681.002286	-80.421266	168.279168	607.717999	-99.561819	88.165641	577.966606	-110.378571	191.604244	587.333642	-122.281704	-17.718380	469.712930	-129.746818	7.219922	471.610529	-214.026065	-95.378385	462.488210	-174.013245	183.182512	353.981859	-150.505126	109.803057	351.053103	-98.084494	108.706531	1032.785704	-471.150509	188.522224	998.730666	-469.862431	210.073171	1026.350332	-459.287964	241.760583	927.097333	-466.516780	351.153103	808.457095	-439.997013	383.723315	788.834635	-329.842148	345.548633	685.342312	-461.875414	354.075623	599.540492	-444.927389	319.190046	518.011523	-444.964620	382.025413	598.211633	-417.274127	294.530234	372.401858	-438.716221	290.247437	382.830011	-351.227844	212.994309	346.403316	-400.160959	515.550973	335.280802	-398.384372	446.383611	298.566404	-461.839935	-177.639380	933.070666	-279.932620	-3.267213	85.486696	-484.609569	-15.028276	80.390234	-84.131152	
